<svg width="500" height="500" xmlns="http://www.w3.org/2000/svg">

 <g>
  <title>background</title>
  <rect fill="none" id="canvas_background" height="402" width="582" y="-1" x="-1"/>
 </g>
 <g>
  <title>Layer 1</title>
  <path id="svg_7" stroke-width="15" stroke-miterlimit="10" stroke-linejoin="round" stroke-linecap="round" stroke="#ffffff" fill="none" d="m336.783,313.561l-8.26,-16.448c21.95,-0.602 15.986,-12.157 15.986,-12.157c-17.13,-28.606 -11.533,-28.678 -11.365,-53.549c0.006,-0.943 0.181,-1.878 0.162,-2.821c-0.804,-39.686 -43.469,-71.61 -83.348,-71.61c-40.384,0 -73.121,32.737 -73.121,73.121"/>
  <path id="svg_8" stroke-width="15" stroke-miterlimit="10" stroke-linejoin="round" stroke-linecap="round" stroke="#ffffff" fill="none" d="m177.048,230.533c0,-28.65 23.226,-51.876 51.876,-51.876s51.876,23.226 51.876,51.876c0,0 2.013,46.988 -51.876,46.988l24.609,72.221c0,0 16.592,20.18 55.501,20.18c13.917,0 12.112,-26.985 12.112,-26.985l12.249,-11.474l-25.687,-7.529"/>
  <circle id="svg_9" stroke-width="15" stroke-miterlimit="10" stroke-linejoin="round" stroke-linecap="round" stroke="#ffffff" r="19.136" fill="none" cy="228.941" cx="229.648"/>
  <polyline id="svg_10" stroke-width="15" stroke-miterlimit="10" stroke-linejoin="round" stroke-linecap="round" stroke="#ffffff" points="       179.572,255.734 206.319,326.874 232.075,344.835      " fill="none"/>
  <path id="svg_11" stroke-width="15" stroke-miterlimit="10" stroke-linejoin="round" stroke-linecap="round" stroke="#ffffff" fill="none" d="m209.876,373.614c-20.204,19.778 -13.26,34.216 -3.952,40.859"/>
  <path id="svg_12" stroke-width="15" stroke-miterlimit="10" stroke-linejoin="round" stroke-linecap="round" stroke="#ffffff" fill="none" d="m199.09,348.141l-29.759,31.911c-13.354,14.32 -21.839,32.494 -24.243,51.926l-8.54,55.022"/>
  <line id="svg_13" y2="414.474" y1="351.851" x2="205.924" x1="254.437" stroke-width="15" stroke-miterlimit="10" stroke-linejoin="round" stroke-linecap="round" stroke="#ffffff" fill="none"/>
  <path id="svg_14" stroke-width="15" stroke-miterlimit="10" stroke-linejoin="round" stroke-linecap="round" stroke="#ffffff" fill="none" d="m269.5,380l0,25l43.841,45.312c7.799,8.06 12.159,18.837 12.159,30.052l0,6.636"/>
  <line id="svg_15" y2="246.5" y1="246.5" x2="332" x1="280" stroke-width="15" stroke-miterlimit="10" stroke-linejoin="round" stroke-linecap="round" stroke="#ffffff" fill="none"/>
  <path id="svg_16" stroke-width="15" stroke-miterlimit="10" stroke-linejoin="round" stroke-linecap="round" stroke="#ffffff" fill="none" d="m164.092,466.191c0,-28.378 23.005,-51.383 51.383,-51.383s51.383,23.005 51.383,51.383"/>
  <path id="svg_17" stroke-width="15" stroke-miterlimit="10" stroke-linejoin="round" stroke-linecap="round" stroke="#ffffff" fill="none" d="m402.772,189.407c3.37,12.61 5.167,25.862 5.167,39.535c0,31.629 -9.615,61.012 -26.082,85.386"/>
  <path id="svg_18" stroke-width="15" stroke-miterlimit="10" stroke-linejoin="round" stroke-linecap="round" stroke="#ffffff" fill="none" d="m306.003,84.87c30.232,10.656 56.102,30.558 74.217,56.31"/>
  <path id="svg_19" stroke-width="15" stroke-miterlimit="10" stroke-linejoin="round" stroke-linecap="round" stroke="#ffffff" fill="none" d="m141.31,330.663c-24.134,-27.008 -38.806,-62.651 -38.806,-101.721c0,-62.091 37.054,-115.527 90.256,-139.402"/>
  <circle id="svg_20" stroke-width="15" stroke-miterlimit="10" stroke-linejoin="round" stroke-linecap="round" stroke="#ffffff" r="9.381" fill="none" cy="135.749" cx="67.812"/>
  <circle id="svg_21" stroke-width="15" stroke-miterlimit="10" stroke-linejoin="round" stroke-linecap="round" stroke="#ffffff" r="9.381" fill="none" cy="85.87" cx="406.962"/>
  <polyline id="svg_22" stroke-width="15" stroke-miterlimit="10" stroke-linejoin="round" stroke-linecap="round" stroke="#ffffff" points="    34.5,54 34.5,112 115.038,168.277   " fill="none"/>
  <circle id="svg_23" stroke-width="15" stroke-miterlimit="10" stroke-linejoin="round" stroke-linecap="round" stroke="#ffffff" r="9.381" fill="none" cy="292.463" cx="58.431"/>
  <polyline id="svg_24" stroke-width="15" stroke-miterlimit="10" stroke-linejoin="round" stroke-linecap="round" stroke="#ffffff" points="    467.5,381 467.5,305.943 404.962,267.694   " fill="none"/>
  <path id="svg_25" stroke-width="15" stroke-miterlimit="10" stroke-linejoin="round" stroke-linecap="round" stroke="#ffffff" fill="none" d="m184.981,30.276c21.897,-7.854 45.497,-12.134 70.097,-12.134c94.715,0 174.613,63.435 199.528,150.137"/>
  <path id="svg_26" stroke-width="15" stroke-miterlimit="10" stroke-linejoin="round" stroke-linecap="round" stroke="#ffffff" fill="none" d="m47.5,225.721c0,-31.102 6.84,-60.607 19.099,-87.092c14.326,-30.952 36.052,-57.779 62.907,-78.211"/>
  <path id="svg_27" stroke-width="15" stroke-miterlimit="10" stroke-linejoin="round" stroke-linecap="round" stroke="#ffffff" fill="none" d="m87.758,348.597c-12.477,-16.961 -22.436,-35.888 -29.328,-56.23"/>
  <path id="svg_28" stroke-width="15" stroke-miterlimit="10" stroke-linejoin="round" stroke-linecap="round" stroke="#ffffff" fill="none" d="m434.724,329.789c-21.19,36.5 -53.185,65.95 -91.607,83.97"/>
  <circle id="svg_29" stroke-width="15" stroke-miterlimit="10" stroke-linejoin="round" stroke-linecap="round" stroke="#ffffff" r="18.349" fill="none" cy="401.545" cx="467.5"/>
  <circle id="svg_30" stroke-width="15" stroke-miterlimit="10" stroke-linejoin="round" stroke-linecap="round" stroke="#ffffff" r="18.349" fill="none" cy="35.143" cx="34.5"/>
 </g>
</svg>